<?xml version="1.0" encoding="iso-8859-1"?>
<!-- Generator: Adobe Illustrator 19.0.0, SVG Export Plug-In . SVG Version: 6.00 Build 0)  -->
<svg version="1.1" id="Layer_1" xmlns="http://www.w3.org/2000/svg" xmlns:xlink="http://www.w3.org/1999/xlink" x="0px" y="0px"
	 viewBox="0 0 504.32 504.32" style="enable-background:new 0 0 504.32 504.32;" xml:space="preserve">
<g transform="translate(1 1)">
	<path style="fill:#50DD8E;" d="M181.613,180.013l20.48-31.573v-2.56c-25.6-2.56-36.693-5.973-36.693-5.973l30.72-48.64
		l-0.853-0.853l-38.4-61.44L71.533,165.506c0,0,12.8,4.267,37.547,6.827l0,0L37.4,284.973c0,0,13.653,3.413,44.373,5.973h1.707
		c0,0,29.867,5.12,69.973,7.68h0.853l22.187-32.427v-1.707c-31.573-2.56-44.373-5.973-44.373-5.973L181.613,180.013L181.613,180.013
		z M182.467,393.346v2.56v25.6h-51.2c-70.827-2.56-128-17.067-128-17.067l78.507-113.493h1.707c0,0,29.867,5.12,69.12,7.68h0.853
		l-56.32,80.213C97.133,378.84,121.88,389.08,182.467,393.346z"/>
	<path style="fill:#AE938D;" d="M131.267,498.306h51.2v-76.8h-51.2V498.306z M319,498.306h51.2v-76.8H319V498.306z M276.333,395.906
		v102.4h-51.2v-102.4l0,0c7.68,0,16.213,0,25.6,0C260.12,395.906,268.653,395.906,276.333,395.906L276.333,395.906z"/>
	<g>
		<path style="fill:#50DD8E;" d="M419.693,290.946L498.2,404.44c0,0-58.027,14.507-128,17.067H319v-25.6v-2.56
			c60.587-4.267,85.333-14.507,85.333-14.507l-53.76-77.653l2.56-1.707C390.68,296.919,418.84,290.946,419.693,290.946
			L419.693,290.946z M392.387,172.333l71.68,112.64c0,0-13.653,3.413-44.373,5.973h-0.853c0,0-28.16,5.973-65.707,9.387l-2.56,1.707
			l-24.747-36.693c30.72-2.56,44.373-5.973,44.373-5.973l-47.787-75.947l0.853-0.853
			C356.547,180.013,391.533,172.333,392.387,172.333L392.387,172.333L392.387,172.333z M391.533,172.333
			c0,0-34.987,7.68-69.12,11.093l-0.853,0.853l-23.893-37.547c25.6-2.56,37.547-6.827,37.547-6.827l-30.72-48.64l1.707-0.853
			l37.547-61.44l85.333,136.533C429.933,165.506,417.133,169.773,391.533,172.333L391.533,172.333L391.533,172.333z"/>
		<path style="fill:#50DD8E;" d="M175.64,265.346v1.707l-22.187,32.427l-56.32,80.213c0,0,24.747,10.24,85.333,14.507
			c12.8,0.853,26.453,1.707,42.667,2.56c7.68,0,16.213,0,25.6,0c9.387,0,17.92,0,25.6,0c16.213,0,29.867-0.853,42.667-2.56
			c60.587-4.267,85.333-14.507,85.333-14.507l-53.76-77.653l-24.747-35.84c30.72-2.56,44.373-5.973,44.373-5.973l-47.787-75.947
			l-23.893-37.547l0,0h0.853c25.6-2.56,37.547-6.827,37.547-6.827l-30.72-48.64L250.733,3.373L196.12,91.266l-30.72,48.64
			c0,0,11.093,3.413,36.693,5.973c12.8,1.707,29.013,2.56,48.64,2.56c5.973,0,11.947,0,17.067,0c0,0,12.8,0,24.747-0.853
			C280.6,148.44,267.8,148.44,267.8,148.44c-5.12,0-11.093,0-17.067,0c-19.627,0-35.84-0.853-48.64-2.56v2.56l-20.48,31.573
			l-50.347,79.36C131.267,259.373,144.92,262.786,175.64,265.346L175.64,265.346z M324.973,265.346L324.973,265.346L324.973,265.346
			z"/>
	</g>
</g>
<path style="fill:#51565F;" d="M499.2,503.573h-17.067c-2.56,0-4.267-1.707-4.267-4.267s1.707-4.267,4.267-4.267H499.2
	c2.56,0,4.267,1.707,4.267,4.267S501.76,503.573,499.2,503.573z M448,503.573H89.6c-2.56,0-4.267-1.707-4.267-4.267
	s1.707-4.267,4.267-4.267H128v-68.267C59.733,423.36,3.413,409.706,3.413,409.706c-1.707,0-2.56-1.707-2.56-2.56
	c-0.853-1.707,0-2.56,0.853-4.267l74.24-107.52c-25.6-2.56-37.547-5.12-37.547-5.12c-1.707,0-2.56-0.853-2.56-2.56s0-2.56,0-4.267
	l68.267-107.52c-21.333-2.56-31.573-5.973-31.573-5.973c-0.853,0-2.56-1.707-2.56-2.56c-0.853-0.853,0-2.56,0-3.413l85.333-136.533
	c0.853-0.853,2.56-1.707,3.413-1.707l0,0c1.707,0,2.56,0.853,3.413,1.707l21.333,34.133c0.853,1.707,0.853,4.267-1.707,5.973
	c-1.707,0.853-4.267,0.853-5.973-1.707l-17.92-28.16L79.36,163.093c5.973,1.707,16.213,3.413,31.573,5.12
	c1.707,0,2.56,0.853,3.413,2.56c0.853,1.707,0.853,2.56,0,4.267L46.08,282.56c6.827,0.853,19.627,3.413,37.547,4.267
	c1.707,0,2.56,0.853,3.413,2.56c0.853,1.707,0.853,3.413,0,4.267L11.947,402.027C28.16,405.44,76.8,415.68,133.12,417.386
	c2.56,0,4.267,1.707,4.267,4.267v72.533h42.667V425.92c0-2.56,1.707-4.267,4.267-4.267s4.267,1.707,4.267,4.267v68.267h34.133
	V400.32c-88.747-2.56-123.733-16.213-125.44-17.067c-0.853-0.853-1.707-1.707-2.56-2.56c0-0.853,0-2.56,0.853-3.413l58.88-85.333
	c1.707-1.707,4.267-2.56,5.973-0.853c1.707,1.707,2.56,4.267,0.853,5.973l-55.467,81.067c14.507,4.267,59.733,15.36,146.773,15.36
	s132.267-11.093,146.773-15.36l-75.093-109.227c-0.853-0.853-0.853-2.56,0-4.267c0.853-1.707,1.707-2.56,3.413-2.56
	c18.773-1.707,31.573-3.413,37.547-4.267l-68.267-107.52c-0.853-0.853-0.853-2.56,0-4.267c0.853-1.707,1.707-2.56,3.413-2.56
	c15.36-1.707,25.6-3.413,31.573-5.12L253.44,12.907l-78.507,125.44c10.24,2.56,35.84,6.827,78.507,6.827c5.973,0,11.947,0,17.067,0
	l0,0c2.56,0,4.267,1.707,4.267,4.267s-1.707,4.267-4.267,4.267c-5.12,0-11.093,0-17.067,0c-59.733,0-85.333-8.533-87.04-8.533
	c-0.853,0-2.56-1.707-2.56-2.56c-0.853-0.853,0-2.56,0-3.413L249.173,2.667c1.707-2.56,5.973-2.56,6.827,0L341.333,139.2
	c0.853,0.853,0.853,2.56,0,3.413c-0.853,0.853-1.707,2.56-2.56,2.56c-0.853,0-11.093,3.413-31.573,5.973l68.267,107.52
	c0.853,0.853,0.853,2.56,0,4.267c-0.853,1.707-1.707,2.56-2.56,2.56c-0.853,0-12.8,2.56-37.547,5.12l74.24,107.52
	c0.853,0.853,0.853,2.56,0.853,3.413c0,0.853-1.707,2.56-2.56,2.56c-1.707,0.853-36.693,14.507-125.44,17.067v93.867h34.133v-68.267
	c0-2.56,1.707-4.267,4.267-4.267s4.267,1.707,4.267,4.267v68.267h42.667v-72.534c0-2.56,1.707-4.267,4.267-4.267
	c56.32-2.56,104.96-11.947,121.173-15.36l-75.093-108.373c-0.853-0.853-0.853-2.56,0-4.267s1.707-2.56,3.413-2.56
	c18.773-1.707,31.573-3.413,37.547-4.267l-68.267-107.52c-0.853-0.853-0.853-2.56,0-4.267c0.853-1.707,1.707-2.56,3.413-2.56
	c15.36-1.707,25.6-3.413,31.573-5.12l-78.507-125.44l-17.92,28.16c-0.853,1.707-4.267,2.56-5.973,1.707
	c-1.707-0.853-2.56-4.267-1.707-5.973l21.333-34.133c0.853-0.853,2.56-1.707,3.413-1.707c1.707,0,2.56,0.853,3.413,1.707
	L435.2,164.799c0.853,0.853,0.853,2.56,0,3.413c-0.853,0.853-1.707,2.56-2.56,2.56s-11.093,3.413-31.573,5.973l68.267,107.52
	c0.853,0.853,0.853,2.56,0,4.267c-0.853,1.707-1.707,2.56-2.56,2.56s-12.8,2.56-37.547,5.12l74.24,107.52
	c0.853,0.853,0.853,2.56,0.853,4.267c-0.853,1.707-1.707,2.56-2.56,2.56s-56.32,13.653-124.587,17.067v68.267h72.533
	c2.56,0,4.267,1.707,4.267,4.267S450.56,503.573,448,503.573z M230.4,495.04h42.667v-93.867c-13.653,0-29.013,0-42.667,0V495.04z
	 M55.467,503.573h-51.2c-2.56,0-4.267-1.707-4.267-4.267s1.707-4.267,4.267-4.267h51.2c2.56,0,4.267,1.707,4.267,4.267
	S58.027,503.573,55.467,503.573z M251.733,273.173c-84.48,0-119.467-8.533-120.32-8.533c-1.707,0-2.56-1.707-2.56-2.56
	c0-0.853,0-2.56,0-4.267l54.613-85.333c0.853-1.707,4.267-2.56,5.973-1.707c1.707,0.853,2.56,4.267,1.707,5.973l-51.2,80.213
	c12.8,2.56,48.64,6.827,112.64,6.827c14.507,0,29.013,0,42.667-0.853l0,0c2.56,0,4.267,1.707,4.267,4.267s-1.707,4.267-4.267,4.267
	C280.747,273.173,266.24,273.173,251.733,273.173z"/>
<g>
</g>
<g>
</g>
<g>
</g>
<g>
</g>
<g>
</g>
<g>
</g>
<g>
</g>
<g>
</g>
<g>
</g>
<g>
</g>
<g>
</g>
<g>
</g>
<g>
</g>
<g>
</g>
<g>
</g>
</svg>
